<?xml version="1.0" encoding="UTF-8"?>
<svg width="512" height="512" viewBox="0 0 512 512" xmlns="http://www.w3.org/2000/svg">
  <defs>
    <linearGradient id="bgGradient" x1="0%" y1="0%" x2="100%" y2="100%">
      <stop offset="0%" style="stop-color:#2563eb;stop-opacity:1" />
      <stop offset="100%" style="stop-color:#06b6d4;stop-opacity:1" />
    </linearGradient>
    <linearGradient id="iconGradient" x1="0%" y1="0%" x2="100%" y2="100%">
      <stop offset="0%" style="stop-color:#ffffff;stop-opacity:1" />
      <stop offset="100%" style="stop-color:#e5e7eb;stop-opacity:1" />
    </linearGradient>
  </defs>
  
  <!-- Background circle -->
  <circle cx="256" cy="256" r="240" fill="url(#bgGradient)" stroke="#1e40af" stroke-width="4"/>
  
  <!-- AI Brain icon -->
  <g transform="translate(256,256)">
    <!-- Brain outline -->
    <path d="M-50,-70 C-80,-70 -100,-50 -100,-20 C-100,0 -90,20 -70,35 C-50,50 -30,60 0,60 C30,60 50,50 70,35 C90,20 100,0 100,-20 C100,-50 80,-70 50,-70 C30,-70 10,-60 -10,-60 C-30,-60 -50,-70 -50,-70 Z" 
          fill="url(#iconGradient)" stroke="#1e40af" stroke-width="3"/>
    
    <!-- Brain circuits -->
    <circle cx="-30" cy="-30" r="8" fill="#2563eb"/>
    <circle cx="30" cy="-30" r="8" fill="#2563eb"/>
    <circle cx="0" cy="0" r="8" fill="#06b6d4"/>
    <circle cx="-20" cy="20" r="6" fill="#2563eb"/>
    <circle cx="20" cy="20" r="6" fill="#2563eb"/>
    
    <!-- Connecting lines -->
    <line x1="-30" y1="-30" x2="0" y2="0" stroke="#1e40af" stroke-width="2"/>
    <line x1="30" y1="-30" x2="0" y2="0" stroke="#1e40af" stroke-width="2"/>
    <line x1="0" y1="0" x2="-20" y2="20" stroke="#1e40af" stroke-width="2"/>
    <line x1="0" y1="0" x2="20" y2="20" stroke="#1e40af" stroke-width="2"/>
  </g>
  
  <!-- Trading chart elements -->
  <g transform="translate(256,380)">
    <!-- Chart bars -->
    <rect x="-60" y="-20" width="8" height="30" fill="#10b981"/>
    <rect x="-40" y="-30" width="8" height="40" fill="#ef4444"/>
    <rect x="-20" y="-25" width="8" height="35" fill="#10b981"/>
    <rect x="0" y="-35" width="8" height="45" fill="#10b981"/>
    <rect x="20" y="-15" width="8" height="25" fill="#ef4444"/>
    <rect x="40" y="-25" width="8" height="35" fill="#10b981"/>
    
    <!-- Trend line -->
    <path d="M-60,0 L-40,-10 L-20,-5 L0,-15 L20,5 L40,-5" 
          stroke="#06b6d4" stroke-width="3" fill="none"/>
  </g>
</svg> 